<svg width="20" height="20" viewBox="0 0 20 20" fill="none" xmlns="http://www.w3.org/2000/svg">
<g clip-path="url(#clip0_6_22)">
<path d="M9.10156 0.0585918C7.41406 0.355467 5.96484 1.44531 5.21094 2.98828C4.99219 3.4414 4.80078 4.05078 4.73047 4.51953C4.70703 4.67187 4.6875 5.04297 4.6875 5.33984C4.6875 6.19531 4.83984 6.86328 5.21484 7.63672C5.53125 8.29687 6.02344 8.92969 6.57812 9.39453L6.76562 9.55469L6.32422 9.72266C5.43359 10.0664 4.39844 10.6562 3.65234 11.2539C1.92187 12.6367 0.636717 14.6523 0.117185 16.7969C0.00390396 17.2734 -0.00781479 17.3672 0.00781021 17.7539C0.0234352 18.1172 0.0468727 18.2305 0.148435 18.4961C0.437498 19.2266 1.02344 19.7422 1.77734 19.9414C1.96875 19.9883 2.29687 20 3.67969 20C5.25 20 5.36328 19.9961 5.5 19.9258C5.68359 19.832 5.80078 19.707 5.8789 19.5234C6.03515 19.1406 5.875 18.7031 5.5 18.5117C5.36328 18.4414 5.2539 18.4375 3.91406 18.4375C2.4414 18.4375 2.125 18.4141 1.95703 18.2891C1.59765 18.0234 1.53125 17.7266 1.69531 17.0898C2.30859 14.6719 4.02344 12.5937 6.30469 11.5C7.53125 10.9141 8.6875 10.6523 10.0391 10.6562C11.0078 10.6562 11.668 10.7617 12.6914 11.082C12.9375 11.1562 13.2227 11.2187 13.3203 11.2187C14.0117 11.2187 14.3516 10.3828 13.8672 9.87891C13.7812 9.78906 13.6406 9.70312 13.4805 9.64453L13.2305 9.55469L13.4219 9.39844C13.9766 8.92969 14.4531 8.31641 14.7812 7.64453C15.1562 6.87109 15.3125 6.19922 15.3125 5.33984C15.3125 4.70703 15.2695 4.38672 15.1133 3.82812C14.7148 2.41406 13.6758 1.18359 12.3242 0.523436C11.8711 0.304686 11.2617 0.113279 10.793 0.0429668C10.418 -0.0156269 9.46484 -0.00390816 9.10156 0.0585918ZM10.9766 1.71484C12.2539 2.08594 13.2266 3.0625 13.6016 4.35937C13.6797 4.6289 13.6914 4.75 13.6875 5.33203C13.6875 5.9414 13.6797 6.02344 13.5781 6.34765C13.1836 7.63672 12.1758 8.59766 10.8672 8.92969C10.3437 9.0625 9.65625 9.0625 9.13281 8.92969C7.82422 8.59766 6.8164 7.63672 6.42187 6.34765C6.32031 6.02344 6.3125 5.9414 6.3125 5.33203C6.30859 4.75 6.32031 4.6289 6.39844 4.35937C6.79687 2.97656 7.85937 1.97265 9.24219 1.66406C9.64062 1.57422 10.5859 1.60156 10.9766 1.71484Z" fill="black"/>
<path d="M14.4649 12.2852C13.7813 12.4688 13.2383 12.9961 13.0078 13.6953L12.9219 13.9453H10.2656C7.89456 13.9453 7.59377 13.9531 7.47659 14.0078C7.30471 14.0898 5.82815 15.6055 5.75784 15.7695C5.68362 15.9453 5.69143 16.3203 5.77346 16.4688C5.88674 16.6797 7.35159 18.1562 7.51174 18.2227C7.62893 18.2734 7.89065 18.2812 9.12893 18.2812C10.5469 18.2812 10.6055 18.2773 10.7735 18.1992C10.875 18.1484 10.9844 18.0508 11.0469 17.957C11.1367 17.8203 11.1524 17.7578 11.1524 17.5C11.1524 17.2422 11.1367 17.1797 11.0469 17.043C10.9844 16.9492 10.875 16.8516 10.7735 16.8008C10.6094 16.7227 10.543 16.7188 9.41018 16.7188H8.22268L7.9219 16.4141L7.62112 16.1133L7.89456 15.8086L8.1719 15.5078H10.961C13.6719 15.5078 13.7578 15.5039 13.9063 15.4297C14.1328 15.3125 14.2344 15.1484 14.4102 14.5859C14.5469 14.1484 14.5899 14.0547 14.7031 13.9531C14.8867 13.793 15.0196 13.7812 16.4258 13.7969C17.9219 13.8125 17.8477 13.7812 18.1094 14.5195C18.4961 15.5898 18.4961 16.5664 18.1211 17.6719C17.9727 18.1094 17.8789 18.2617 17.7227 18.3516C17.6094 18.4102 17.4531 18.418 16.2461 18.418H14.8985L14.7539 18.3203C14.5938 18.2109 14.5156 18.0508 14.3555 17.5195C14.2969 17.3242 14.211 17.1055 14.1602 17.0273C13.9727 16.7344 13.4883 16.6289 13.1328 16.8008C12.7617 16.9805 12.6524 17.3828 12.8086 17.9688C13.0625 18.9062 13.4453 19.4688 14.0235 19.7656C14.4766 19.9961 14.5196 20 16.2539 20C17.8203 20 17.8555 20 18.1367 19.9102C18.6875 19.7344 19.1641 19.3164 19.4024 18.7969C19.5742 18.4297 19.7852 17.7812 19.8946 17.3047C19.9688 16.9844 19.9805 16.8164 19.9766 16.0938C19.9766 15.1758 19.9414 14.9336 19.6836 14.1406C19.4727 13.4883 19.293 13.1523 18.9961 12.8555C18.6992 12.5625 18.4688 12.418 18.0977 12.3047C17.8594 12.2305 17.7383 12.2266 16.2539 12.2305C15.0196 12.2305 14.6211 12.2422 14.4649 12.2852Z" fill="black"/>
<path d="M16.4531 15.3945C16.2109 15.5156 16.082 15.7305 16.0625 16.0391C16.0313 16.5234 16.3008 16.8359 16.7813 16.8672C17.2656 16.8984 17.5781 16.6289 17.6094 16.1484C17.6289 15.832 17.5234 15.5898 17.293 15.4375C17.0742 15.293 16.6914 15.2734 16.4531 15.3945Z" fill="black"/>
</g>
<defs>
<clipPath id="clip0_6_22">
<rect width="20" height="20" fill="white"/>
</clipPath>
</defs>
</svg>
