<svg width="20" height="20" viewBox="0 0 20 20" fill="none" xmlns="http://www.w3.org/2000/svg">
<g clip-path="url(#clip0_6_31)">
<path d="M6.93751 0.0625C3.30079 0.554688 0.46876 3.45703 0.0351662 7.125C0.00782242 7.37109 -0.00389633 7.8125 0.0117287 8.31641C0.0390724 9.38281 0.179697 10.082 0.554697 11.0273C1.4297 13.2461 3.2461 14.957 5.51173 15.6992C6.3711 15.9805 7.08985 16.0938 8.03517 16.0938C9.71485 16.0938 11.1836 15.6523 12.5742 14.7188L12.9805 14.4453L15.6797 17.1445C17.75 19.2109 18.418 19.8594 18.5547 19.918C18.7969 20.0273 19.2109 20.0273 19.4375 19.918C19.6289 19.8281 19.8672 19.582 19.9453 19.3906C20.0274 19.1953 20.0156 18.7656 19.918 18.5547C19.8594 18.418 19.2149 17.7539 17.1445 15.6797L14.4453 12.9805L14.6953 12.6133C15.4024 11.5781 15.875 10.3516 16.0352 9.12109C16.1094 8.54297 16.1094 7.55078 16.0352 6.98438C15.6719 4.21875 13.8906 1.82422 11.3594 0.695312C10.625 0.367188 9.95313 0.175781 9.1211 0.0585938C8.63282 -0.0117188 7.46095 -0.0117188 6.93751 0.0625ZM9.23829 2.14062C10.4609 2.40625 11.3945 2.91797 12.2891 3.80859C12.8516 4.37109 13.1602 4.79688 13.4766 5.44922C14.7695 8.13281 13.8711 11.4023 11.3867 13.0547C10.4219 13.6953 9.43751 14.0078 8.26173 14.0508C6.47267 14.1133 4.9336 13.4805 3.66798 12.1602C2.90235 11.3594 2.38673 10.3789 2.12892 9.21875C2.03126 8.77734 2.00392 7.65625 2.08204 7.16406C2.37501 5.33984 3.4297 3.79297 5.04689 2.83203C5.62501 2.48828 6.41407 2.21094 7.16798 2.08594C7.6211 2.01172 8.78126 2.04297 9.23829 2.14062Z" fill="black"/>
</g>
<defs>
<clipPath id="clip0_6_31">
<rect width="20" height="20" fill="white"/>
</clipPath>
</defs>
</svg>
